<svg viewBox="0 0 1024 1024" xmlns="http://www.w3.org/2000/svg">
    <!-- Background Gradient -->
    <defs>
        <linearGradient id="bgGradient" x1="0%" y1="0%" x2="100%" y2="100%">
            <stop offset="0%" style="stop-color:#4C1D95"/>
            <stop offset="100%" style="stop-color:#7C3AED"/>
        </linearGradient>
        
        <!-- Enhanced Shadow for depth -->
        <filter id="shadow" x="-20%" y="-20%" width="140%" height="140%">
            <feDropShadow dx="0" dy="4" stdDeviation="4" flood-opacity="0.3"/>
        </filter>
    </defs>
    
    <!-- Main Square Background -->
    <rect x="51.2" y="51.2" width="921.6" height="921.6" rx="82" 
          fill="url(#bgGradient)" 
          filter="url(#shadow)"/>
    
    <!-- File Templates Group -->
    <g stroke="#F8FAFC" stroke-width="25.6">
        <!-- Base Template -->
        <rect x="256" y="204.8" width="358.4" height="460.8" fill="none" rx="30.72"/>
        <line x1="327.68" y1="307.2" x2="542.72" y2="307.2" stroke-width="20.48" opacity="0.9"/>
        <line x1="327.68" y1="389.12" x2="542.72" y2="389.12" stroke-width="20.48" opacity="0.9"/>
        <line x1="327.68" y1="471.04" x2="460.8" y2="471.04" stroke-width="20.48" opacity="0.9"/>
        
        <!-- Generated Files (Stacked) -->
        <g opacity="0.9">
            <rect x="358.4" y="307.2" width="358.4" height="460.8" fill="none" rx="30.72"/>
            <line x1="430.08" y1="409.6" x2="645.12" y2="409.6" stroke-width="20.48"/>
            <line x1="430.08" y1="491.52" x2="645.12" y2="491.52" stroke-width="20.48"/>
            <line x1="430.08" y1="573.44" x2="563.2" y2="573.44" stroke-width="20.48"/>
        </g>
        
        <!-- Top Generated File -->
        <g opacity="0.85">
            <rect x="460.8" y="409.6" width="358.4" height="460.8" fill="none" rx="30.72"/>
            <line x1="532.48" y1="512" x2="747.52" y2="512" stroke-width="20.48"/>
            <line x1="532.48" y1="593.92" x2="747.52" y2="593.92" stroke-width="20.48"/>
            <line x1="532.48" y1="675.84" x2="665.6" y2="675.84" stroke-width="20.48"/>
        </g>
    </g>
    
    <!-- Arrow Icon - More Prominent -->
    <g transform="translate(153.6,665.6) scale(8.192)">
        <path d="M10,0 L20,5 L10,10 L10,7 L0,7 L0,3 L10,3 Z" 
              fill="#FFFFFF"/>
    </g>
</svg>
